<!DOCTYPE svg PUBLIC "-//W3C//DTD SVG 1.1//EN" "http://www.w3.org/Graphics/SVG/1.1/DTD/svg11.dtd">
<!-- Uploaded to: SVG Repo, www.svgrepo.com, Transformed by: SVG Repo Mixer Tools -->
<svg fill="#F761A1" height="800px" width="800px" version="1.1" id="Layer_1" xmlns="http://www.w3.org/2000/svg" xmlns:xlink="http://www.w3.org/1999/xlink" viewBox="0 0 512.001 512.001" xml:space="preserve" stroke="#F761A1">
<g id="SVGRepo_bgCarrier" stroke-width="0"/>
<g id="SVGRepo_tracerCarrier" stroke-linecap="round" stroke-linejoin="round"/>
<g id="SVGRepo_iconCarrier"> <g> <g> <path d="M482.19,430.44c-26.096,13.286-57.55,8.288-78.274-12.435c-12.735-12.735-19.749-29.668-19.749-47.679 s7.014-34.944,19.749-47.68l11.92-11.92c38.118-38.118,51.665-91.639,40.656-140.712c16.229-13.253,27.199-22.501,30.862-26.166 c32.862-32.864,32.862-86.336,0-119.199c-32.863-32.863-86.336-32.863-119.199,0c-3.665,3.665-12.913,14.633-26.165,30.861 c-49.074-11.008-102.595,2.54-140.713,40.658l-11.919,11.919c-26.292,26.288-69.069,26.291-95.361,0 C73.27,87.36,68.273,55.901,81.564,29.809c4.226-8.296,0.925-18.446-7.371-22.672c-8.294-4.228-18.446-0.926-22.672,7.371 c-19.938,39.146-12.449,86.334,18.636,117.419c39.438,39.438,103.605,39.436,143.039,0l11.919-11.919 c25.266-25.263,59.231-36.65,92.342-34.167C218.792,208.68,14.445,470.818,3.562,484.78c-5.23,6.71-4.64,16.267,1.377,22.282 c6.019,6.021,15.578,6.602,22.282,1.377c13.964-10.882,276.103-215.232,398.944-313.896c2.484,33.111-8.903,67.077-34.169,92.343 l-11.92,11.92c-19.104,19.104-29.624,44.503-29.624,71.52c0,27.016,10.521,52.416,29.625,71.519 c31.194,31.196,78.406,38.504,117.412,18.639c8.297-4.224,11.597-14.375,7.372-22.671 C500.636,429.515,490.484,426.217,482.19,430.44z M114.611,397.391c81.395-103.996,183.893-234.409,239.142-302.939 c8.929,3.688,17.492,8.52,25.467,14.491l-11.065,11.065c-6.583,6.582-6.583,17.256,0,23.84c6.581,6.583,17.255,6.584,23.84,0 l11.065-11.065c5.971,7.975,10.802,16.538,14.491,25.467C349.02,213.497,218.608,315.995,114.611,397.391z M415.835,72.327 l-12.586,12.586c-8.641-6.914-17.864-12.754-27.495-17.501c8.141-9.868,13.766-16.449,16.24-18.924 c9.859-9.858,22.81-14.788,35.76-14.788s25.901,4.93,35.76,14.788c19.719,19.719,19.719,51.801,0.001,71.519 c-2.475,2.475-9.056,8.099-18.925,16.241c-4.748-9.631-10.587-18.854-17.501-27.495l12.586-12.586 c6.583-6.582,6.583-17.256,0-23.84C433.093,65.744,422.419,65.744,415.835,72.327z"/> </g> </g> </g>
</svg>